<?xml version="1.0" encoding="UTF-8"?><svg id="Calque_1" xmlns="http://www.w3.org/2000/svg" viewBox="0 0 40.11 61.56"><defs><style>.cls-1{fill:#f08642;}.cls-2{fill:#8fcdd9;}</style></defs><path class="cls-2" d="M24.44,21.67l-2.05-2.17c-1.46-1.54-2.55-3.39-3.2-5.41l-2.57-9.68c-.13-.41-.24-.82-.34-1.24,.68-.3,1.1-1.03,.97-1.8-.16-.9-1.01-1.5-1.91-1.34l-6.05,1.06c-.9,.16-1.5,1.01-1.34,1.91,.13,.77,.78,1.31,1.52,1.36,.05,.42,.09,.85,.1,1.28l.87,9.98c.07,2.12-.33,4.23-1.17,6.18l-1.19,2.74c-.85,1.96-1.11,4.13-.74,6.23l4.91,28.06c.32,1.8,2.03,3.01,3.83,2.69l13.38-2.34c1.8-.32,3.01-2.03,2.69-3.83l-4.91-28.06c-.37-2.11-1.35-4.06-2.81-5.61h0Z"/><path class="cls-1" d="M33.01,31.96c-2.49,1.64-3.49,1.5-6.21,.07-2.97,3.6-7.45,8.7-10.93,12.61l-5.09-5.09c3.91-3.47,9.01-7.95,12.61-10.93-1.44-2.72-1.57-3.72,.07-6.21,5.35-8.13,6.08-8.01,10.31-5.82,1.62,.84,3.21,1.85,3.21,1.85,0,0,1.01,1.59,1.85,3.21,2.19,4.24,2.31,4.96-5.82,10.31h0ZM.08,55.41l1.48-.35h0s.02,0,.03-.02l4.32-4.32c.48,.23,1.03,.31,1.56,.21,1.39-.25,2.72-.8,3.87-1.61l-5.25-5.25c-.81,1.16-1.37,2.48-1.61,3.87-.1,.53-.02,1.07,.21,1.56L.36,53.83s-.01,.02-.02,.03L0,55.34s0,.04,.02,.06c.01,.01,.04,.02,.06,.02h0Zm9.44-14.75c-.72,.64-1.39,1.24-1.97,1.76-.13,.12-.25,.24-.37,.36l5.45,5.45c.12-.12,.24-.24,.36-.37,.52-.58,1.11-1.25,1.76-1.97l-5.23-5.23Z"/></svg>