<?xml version="1.0" encoding="UTF-8"?><svg id="Calque_1" xmlns="http://www.w3.org/2000/svg" viewBox="0 0 46.64 67.24"><defs><style>.cls-1{fill:#f08642;}.cls-2{fill:#8fcdd9;}</style></defs><g><path class="cls-2" d="M15.37,15.79l-4.46,2.8,5.32,8.52,10-6.29-2.24-3.57c-1.51,.64-3.2,.85-4.87,.53-1.42-.22-2.73-.95-3.75-2h0Z"/><path class="cls-2" d="M22.25,37.77l-13.63,8.57,2.44,3.89,.82-1.45-.04-.06,3.24-5.59,9.72-.73c.22,0,.47-.16,.57-.36l4.87-8.44,6.44-.5,.04,.06,1.66-.11-2.44-3.89-13.69,8.61h0Z"/><path class="cls-2" d="M35.6,19.31l-1.31-9.43,9.43-1.31,1.31,9.43-9.43,1.31Z"/><path class="cls-2" d="M22.17,36.58l-5.35-8.51,9.95-6.26,5.35,8.51-9.95,6.26Z"/><path class="cls-2" d="M17.66,0l-5.24,.72c-.56,2-1.81,3.63-3.62,4.63l.74,5.35,9.41-1.29L17.66,0Z"/><path class="cls-2" d="M5.35,33.99L0,25.47l9.95-6.26,5.35,8.51-9.95,6.26Z"/><path class="cls-2" d="M11.27,43.42l-5.35-8.51,9.95-6.26,5.35,8.51-9.95,6.26Z"/><path class="cls-2" d="M30.78,35.08l-4.76,8.19c-.09,.14-.23,.28-.45,.28l-9.45,.74c-.22,0-.47,.16-.57,.36l-2.43,4.19,10.45,16.63,23.06-14.5-10.45-16.63-4.83,.37c-.22,0-.47,.16-.57,.36h0Z"/></g><path class="cls-1" d="M37.08,42.98v-9.65c0-4.47-3.64-8.11-8.11-8.11s-8.11,3.64-8.11,8.11v9.65c-3.26,2.46-5.37,6.37-5.37,10.77,0,7.45,6.04,13.49,13.49,13.49s13.49-6.04,13.49-13.49c0-4.4-2.11-8.31-5.37-10.77h0Zm-6.5,10.82v4.22c0,.89-.72,1.61-1.61,1.61s-1.61-.72-1.61-1.61v-4.22c-.68-.5-1.12-1.3-1.12-2.2,0-1.51,1.23-2.74,2.74-2.74s2.74,1.23,2.74,2.74c0,.91-.45,1.7-1.12,2.2h0Zm3.57-12.5c-1.6-.66-3.34-1.03-5.18-1.03s-3.58,.37-5.18,1.03v-7.97c0-2.86,2.32-5.18,5.18-5.18s5.18,2.32,5.18,5.18v7.97h0Z"/></svg>