<?xml version="1.0" encoding="UTF-8"?><svg id="Calque_1" xmlns="http://www.w3.org/2000/svg" viewBox="0 0 47.88 50.41"><defs><style>.cls-1{fill:#f08642;fill-rule:evenodd;}.cls-2{fill:#8fcdd9;}</style></defs><path class="cls-2" d="M35,44.01c-.95,.32-1.94,.44-2.93,.43,.86-3.01,.59-6.53-.7-10.08,.44,.6,.83,1.18,1.19,1.73,.5,.75,.77,1.45,1.19,2.12,.08,.62,.54,1.32,.47,1.85-.07,.54,.15,1.2-.12,1.59-.33,.94-.51,1.5-.51,1.5,0,0,.49-.27,1.39-.98,.53-.31,.75-.98,1.16-1.74,.45-.78,.37-1.69,.5-2.76-.12-.93-.19-2.1-.56-3.1-.34-1.02-.71-2.13-1.25-3.1-.98-2.09-2.33-3.97-3.61-5.88-1.34-1.77-2.67-3.54-3.92-5.21-.61-.83-1.19-1.57-1.64-2.33-.57-.75-.81-1.41-1.22-2.09-.16-.61-.5-1.31-.5-1.81,.1-.46-.22-1.08,.13-1.54,.42-.94,.63-1.52,.63-1.52,0,0-.54,.3-1.4,.88-.47,.2-.77,.94-1.23,1.74-.39,.83-.41,1.75-.46,2.8,.13,.94,.19,2.13,.61,3.09,.33,1.05,.72,2.12,1.27,3.08,.18,.38,.41,.72,.62,1.09-2.34-2.12-4.88-3.71-7.43-4.77,.87-4.26,3.18-7.57,6.63-8.77,6.34-2.2,14.1,3.58,17.33,12.89,3.24,9.33,.72,18.66-5.61,20.87h0Zm-11.08-17.42c6.87,7.09,8.53,16.6,3.72,21.28-4.82,4.67-14.29,2.72-21.16-4.35C-.4,36.43-2.06,26.9,2.76,22.23c4.81-4.67,14.28-2.72,21.15,4.36h0Zm.7,12.27c-.74-.77-1.54-1.62-2.45-2.27-1.76-1.49-3.78-2.62-5.75-3.81-1.97-1.04-3.93-2.08-5.76-3.06-.91-.48-1.74-.93-2.47-1.41-.83-.44-1.33-.94-1.99-1.38-.4-.5-1-.99-1.21-1.43-.11-.46-.65-.89-.53-1.46-.02-1.03-.07-1.64-.07-1.64,0,0-.36,.51-.9,1.4-.34,.37-.29,1.18-.38,2.1,0,.91,.37,1.76,.77,2.73,.51,.79,1.07,1.85,1.86,2.55,.74,.8,1.54,1.62,2.47,2.26,1.77,1.45,3.77,2.61,5.74,3.78,1.94,1.05,3.89,2.1,5.7,3.09,.91,.48,1.69,.97,2.46,1.44,.77,.45,1.31,.98,1.96,1.42,.34,.53,1.05,.96,1.21,1.49,.17,.5,.63,1.01,.56,1.47,.1,1,.17,1.59,.17,1.59,0,0,.32-.46,.85-1.47,.34-.52,.25-1.23,.31-2.07,.08-.9-.37-1.69-.71-2.71-.5-.81-1.06-1.83-1.82-2.59h0Z"/><path class="cls-1" d="M33.12,22.42l6.4-5.82c.44-.4,1.12-.4,1.57,0l6.4,5.82c.24,.22,.38,.53,.38,.86v15.14c0,.64-.52,1.16-1.16,1.16h-12.81c-.64,0-1.16-.52-1.16-1.16v-15.14c0-.33,.14-.64,.38-.86h0Zm3.11,14.83c.64,0,1.16-.52,1.16-1.16s-.52-1.16-1.16-1.16-1.16,.52-1.16,1.16,.52,1.16,1.16,1.16Zm8.15,0c.64,0,1.16-.52,1.16-1.16s-.52-1.16-1.16-1.16-1.16,.52-1.16,1.16,.52,1.16,1.16,1.16Zm-8.15-6.99c.64,0,1.16-.52,1.16-1.16s-.52-1.16-1.16-1.16-1.16,.52-1.16,1.16,.52,1.16,1.16,1.16Zm8.15,0c.64,0,1.16-.52,1.16-1.16s-.52-1.16-1.16-1.16-1.16,.52-1.16,1.16,.52,1.16,1.16,1.16Zm-4.07,3.49c.64,0,1.16-.52,1.16-1.16s-.52-1.16-1.16-1.16-1.16,.52-1.16,1.16,.52,1.16,1.16,1.16ZM15.28,19.79c0-1.93,1.57-3.49,3.49-3.49h2.33c1.93,0,3.49,1.56,3.49,3.49v6.99c0,.64-.52,1.16-1.16,1.16h-6.99c-.64,0-1.16-.52-1.16-1.16v-6.99Zm26.2-4.99c-.74-.32-1.59-.32-2.33,0v-5.48c0-3.86-3.13-6.99-6.99-6.99h-4.06c-3.86,0-6.99,3.13-6.99,6.99v5.24h-2.33v-5.24C18.77,4.17,22.95,0,28.09,0h4.06c5.15,0,9.32,4.17,9.32,9.31v5.48Z"/></svg>