<?xml version="1.0" encoding="UTF-8"?><svg id="Calque_1" xmlns="http://www.w3.org/2000/svg" viewBox="0 0 50.45 53.17"><defs><style>.cls-1{fill:#f08642;}.cls-2{fill:#8fcdd9;}</style></defs><path class="cls-2" d="M49.63,26.42c0-11.15-11.11-20.19-24.82-20.19S0,15.27,0,26.42c0,8.54,6.51,15.83,15.71,18.79,.09,2-.32,4.89-2.62,7.77,0,0,4.45,1.94,12.02-6.37,13.57-.13,24.52-9.12,24.52-20.19Z"/><path class="cls-1" d="M29.7,32.65l-5.98-8.27-5.92,3.75-3.07-4.43c-1.38-1.99-2.38-4.22-2.95-6.57l-1.27-5.23,6.73-1.94L15.03,0l-5.45,1.48c-2.55,.69-4.41,2.88-4.7,5.5l-.32,3c-1,9.3,3.09,18.43,10.72,23.86l2.46,1.75c2.15,1.53,5.02,1.59,7.23,.14l4.73-3.09Z"/><path class="cls-1" d="M29.27,37.48c-3.66,0-5.53-1.85-6.42-2.74-.1-.1-.19-.19-.27-.26l1.12-1.22c.09,.09,.2,.19,.31,.31,.85,.85,2.27,2.27,5.28,2.26,1.58,0,3.11-.54,4.29-1.44-.99-.69-1.78-1.95-1.94-2.34-.43-1.02-.61-1.92-.53-2.75,.11-1.15,.74-2.16,1.64-2.64,1.44-.77,3.44-.06,4.28,1.51,.64,1.2,.65,2.77,.03,4.33-.14,.36-.32,.71-.52,1.04,2.08,.15,4-.36,5.38-1.44,1.07-.83,1.79-2.03,2.01-3.25-2,.21-4.09-.59-5.28-2.19-.99-1.33-.76-2.53-.26-3.16,.41-.52,1.07-.81,1.91-.85,2.3-.12,4.53,1.64,5.17,3.98,1.51-.94,2.41-2.85,2.18-4.69-.07-.58-.26-1.14-.53-1.67-1.97,.9-4.35,.8-6.23-.31-1.04-.61-1.9-1.81-1.35-3,.22-.47,.63-.83,1.23-1.08,1.12-.47,2.49-.44,3.87,.09,1.13,.43,2.13,1.15,2.92,2.05,.96-.89,2.08-2.78,.26-6.11l1.45-.79c2.1,3.87,1.03,6.73-.76,8.27,.4,.74,.67,1.53,.77,2.35,.34,2.65-1.1,5.42-3.42,6.57-.07,.04-.14,.07-.22,.1-.1,1.88-1.09,3.76-2.72,5.02-1.72,1.33-4.04,1.96-6.53,1.78-.62-.05-.83-.08-1.07-.14-1.55,1.5-3.75,2.44-6.05,2.44h-.03Zm4.79-9.5c-.18,0-.36,.04-.52,.13-.41,.22-.72,.75-.77,1.34-.05,.55,.08,1.19,.4,1.96,.18,.43,1.1,1.62,1.63,1.78,.31-.4,.56-.84,.74-1.3,.44-1.1,.46-2.17,.05-2.93-.29-.53-.93-.96-1.53-.96Zm6.48-3.69s-.09,0-.13,0c-.33,.02-.6,.1-.7,.23-.16,.2-.03,.72,.29,1.14,.87,1.16,2.46,1.72,3.94,1.51-.37-1.61-1.87-2.89-3.39-2.89Zm1.97-7.11c-.35,0-.72,.06-1.07,.2-.23,.1-.34,.2-.37,.26-.08,.16,.23,.6,.69,.87,1.3,.77,2.98,.88,4.4,.35-.58-.6-1.29-1.08-2.08-1.38-.36-.14-.94-.31-1.56-.31Z"/></svg>