<?xml version="1.0" encoding="UTF-8"?><svg id="Calque_1" xmlns="http://www.w3.org/2000/svg" viewBox="0 0 51.78 49.63"><defs><style>.cls-1{fill:#f08642;}.cls-2{fill:#8fcdd9;}</style></defs><g><rect class="cls-2" x="1.33" y="14.04" width="49.12" height="29.51" transform="translate(2.95 -2.4) rotate(5.64)"/><rect class="cls-2" x="22.97" y="41.13" width="3.44" height="6.89" transform="translate(4.5 -2.21) rotate(5.64)"/><ellipse class="cls-2" cx="24.4" cy="48.21" rx="1.13" ry="8.94" transform="translate(-25.97 67.75) rotate(-84.36)"/></g><path class="cls-1" d="M43.5,25.24c-.1-.32-.44-.5-.76-.41l-5.67,1.61c-.47-1.92-.09-4.25,.07-5.29l2.1-13.12c.32-2.02,.17-3.48,.17-3.51-.13-2.16-1.91-4.12-4.05-4.46-.57-.09-1.14-.08-1.7,.04L14.83,4.2c-1.75,.18-3.19,1.5-3.47,3.29-.11,.69-.03,1.41,.22,2.06,.08,.21,.27,.35,.48,.38,.08,.01,.16,0,.25-.01l5.39-1.34c.12,.6,.14,1.32,0,2.16l-2.04,12.78c-.07,.3-1.58,7.5,1.32,10.75,.68,.72,1.55,1.18,2.53,1.34,.35,.06,.7,.07,1.04,.04,.02,0,.04,0,.06,0,.7-.13,16.93-3.1,20.98-5.81,2.26-1.2,2.26-3.5,1.91-4.6h0ZM17.24,7.42l-4.66,1.16c-.05-.29-.05-.6,0-.89,.19-1.19,1.12-2.07,2.27-2.24,.33,.1,1.52,.51,2.28,1.69,.05,.1,.09,.2,.12,.29h0Zm23.86,21.28s-.02,0-.03,0c-.03,.01-.07,.03-.1,.05,0,0-.04,.02-.08,.05-.05,.02-.09,.05-.14,.07-.42,.19-.84,.25-1.23,.19-.9-.14-1.58-.91-1.97-1.48l4.87-1.38c.05,.68-.1,1.79-1.32,2.49h0Z"/></svg>